<?xml version="1.0" encoding="UTF-8"?>
<!DOCTYPE svg PUBLIC "-//W3C//DTD SVG 1.1//EN" "http://www.w3.org/Graphics/SVG/1.1/DTD/svg11.dtd">
<svg version="1.1" xmlns="http://www.w3.org/2000/svg" xmlns:xlink="http://www.w3.org/1999/xlink" x="0px" y="0px" width="25" height="25" viewBox="0, 0, 25, 25">
  <g id="Layer 1">
    <path d="M4.836,12.5 C4.872,10.413 5.723,8.528 7.082,7.155 C8.47,5.753 10.388,4.886 12.506,4.886 C13.911,4.886 15.227,5.267 16.359,5.932 L18.872,1.757 C17.008,0.641 14.832,-0 12.506,-0 C9.053,-0 5.926,1.415 3.663,3.702 C1.429,5.959 0.036,9.065 -0,12.5 L4.836,12.5" fill="#FACC2F"/>
    <path d="M17.932,7.155 C19.291,8.528 20.142,10.414 20.178,12.5 L25.014,12.5 C24.978,9.065 23.584,5.959 21.351,3.702 C20.611,2.954 19.778,2.299 18.872,1.757 L16.359,5.932 C16.935,6.271 17.464,6.683 17.932,7.155" fill="#91C34E"/>
    <path d="M4.836,12.5 C4.872,14.586 5.723,16.472 7.082,17.845 C8.47,19.247 10.388,20.114 12.506,20.114 C13.911,20.114 15.227,19.734 16.359,19.068 L18.872,23.243 C17.008,24.359 14.832,25 12.506,25 C9.053,25 5.926,23.585 3.663,21.299 C1.429,19.042 0.036,15.935 -0,12.5 L4.836,12.5" fill="#54A0CC"/>
    <path d="M17.932,17.845 C19.291,16.472 20.142,14.587 20.178,12.5 L25.014,12.5 C24.978,15.935 23.584,19.042 21.351,21.299 C20.611,22.046 19.778,22.701 18.872,23.243 L16.359,19.068 C16.935,18.729 17.464,18.317 17.932,17.845" fill="#4EBAB7"/>
    <path d="M2.42,10.08 C3.756,10.08 4.84,11.166 4.84,12.506 C4.84,13.845 3.756,14.931 2.42,14.931 C1.084,14.931 0.001,13.845 0.001,12.506 C0.001,11.166 1.084,10.08 2.42,10.08" fill="#5B8A33"/>
    <path d="M17.609,18.727 C18.951,18.727 20.039,19.818 20.039,21.163 C20.039,22.509 18.951,23.6 17.609,23.6 C16.267,23.599 15.18,22.509 15.18,21.163 C15.18,19.818 16.267,18.727 17.609,18.727" fill="#247BA2"/>
    <path d="M17.612,1.406 C18.954,1.406 20.042,2.498 20.042,3.843 C20.042,5.189 18.954,6.28 17.612,6.28 C16.27,6.28 15.182,5.189 15.182,3.843 C15.182,2.498 16.27,1.406 17.612,1.406" fill="#919B29"/>
    <path d="M22.595,10.063 C23.931,10.063 25.014,11.155 25.014,12.5 C25.014,13.845 23.931,14.937 22.595,14.937 C21.26,14.937 20.178,13.846 20.178,12.5 C20.178,11.155 21.26,10.063 22.595,10.063" fill="#1F9E46"/>
  </g>
  <defs/>
</svg>
